<svg width="180" height="182" viewBox="0 0 180 182" fill="none" xmlns="http://www.w3.org/2000/svg">
<path d="M62.4158 0.260866C78.4306 -1.40618 96.5597 5.07789 109.023 15.0995C122.677 26.2677 131.378 42.3707 133.237 59.9152C135.315 79.2758 129.62 95.3181 117.562 110.271C124.828 116.877 133.069 127.136 139.821 132.554C152.298 127.113 160.729 146.685 170.052 153.434C172.83 155.446 179.697 163.797 179.488 166.874C178.976 174.431 168.378 185.591 160.34 179.295C153.306 172.872 145.45 164.962 138.828 157.794C135.763 153.899 128.259 149.651 130.421 142.827C130.891 141.34 132.021 141.099 132.085 139.331C128.39 134.296 115.578 121.936 110.861 117.207C99.7915 126.178 86.9631 132.573 72.6337 133.815C35.4086 137.044 3.19444 109.099 0.18335 72.0997C-1.12523 54.4768 4.60996 37.0546 16.1301 23.6571C28.033 9.67626 44.2203 1.74431 62.4158 0.260866ZM69.4474 125.346C101.736 123.871 126.686 96.4442 125.115 64.1526C123.543 31.861 96.0483 6.98764 63.7697 8.65625C31.6277 10.3181 6.88913 37.6776 8.45369 69.8322C10.0182 101.986 37.2965 126.814 69.4474 125.346Z" fill="#181717"/>
<path d="M45.223 19.3982C48.9166 19.1833 49.8919 22.0094 49.1686 25.1657C48.3701 26.3149 46.5622 27.3637 45.315 27.9908C35.7581 32.7984 28.3207 42.2876 24.8678 52.3296C24.0993 54.5647 23.4269 55.0726 21.4012 56.1402C19.6592 55.897 18.5335 55.5465 17.3963 54.2242C14.8633 48.1136 24.8207 35.1826 28.8473 30.68C33.2793 25.7233 39.424 22.486 45.223 19.3982Z" fill="#FA1916"/>
<path d="M144.95 138.349C147.525 139.114 161.608 154.583 164.968 157.782C172.561 165.009 176.212 168.173 165.354 174.112C161.843 171.549 139.479 149.14 138.122 146.2C139.021 144.102 143.111 140.256 144.95 138.349Z" fill="#FA1916"/>
</svg>
