<svg width="877" height="141" viewBox="0 0 877 141" fill="none" xmlns="http://www.w3.org/2000/svg">
<path d="M267.199 91.2681V53.9428H275.704L289.887 77.4844L286.368 77.5111L299.859 53.9428H308.337V91.2681H299.752L299.912 65.2471L301.485 65.8069L290.714 84.2296H284.822L273.624 65.8069L275.144 65.2471L275.304 91.2681H267.199ZM321.402 91.2681V53.9428H347.636V61.6212H330.253V68.553H344.837V75.6448H330.253V83.5098H347.849V91.2681H321.402ZM378.23 92.0679C375.351 92.0679 372.64 91.6235 370.099 90.7348C367.557 89.8462 365.318 88.5664 363.38 86.8957C361.461 85.2072 359.95 83.1632 358.848 80.7637C357.746 78.3642 357.195 75.6537 357.195 72.6321C357.195 69.6283 357.719 66.9356 358.768 64.5539C359.834 62.1544 361.31 60.1015 363.194 58.3952C365.078 56.6889 367.264 55.3914 369.752 54.5027C372.24 53.5963 374.915 53.143 377.777 53.143C379.092 53.143 380.47 53.2497 381.909 53.463C383.349 53.6585 384.816 54.0139 386.309 54.5294C387.802 55.0448 389.268 55.7736 390.708 56.7156L387.028 63.5674C385.749 62.732 384.389 62.1188 382.949 61.7278C381.51 61.319 379.981 61.1146 378.364 61.1146C376.497 61.1146 374.818 61.3812 373.325 61.9144C371.832 62.4477 370.561 63.2208 369.512 64.2339C368.481 65.2293 367.69 66.4379 367.139 67.8598C366.588 69.2817 366.313 70.8903 366.313 72.6854C366.313 75.2627 366.864 77.4222 367.966 79.164C369.068 80.8881 370.561 82.1945 372.445 83.0832C374.329 83.9541 376.435 84.3896 378.764 84.3896C379.688 84.3896 380.568 84.3096 381.403 84.1496C382.238 83.9896 382.976 83.803 383.616 83.5897V76.9778H375.991V69.9394H391.374V88.9752C390.254 89.6151 388.921 90.1661 387.375 90.6282C385.846 91.0903 384.273 91.4458 382.656 91.6946C381.056 91.9435 379.581 92.0679 378.23 92.0679ZM399.715 91.2681L413.659 53.9428H423.923L438 91.2681H428.029L425.39 83.6964H412.006L409.42 91.2681H399.715ZM414.005 76.3113H423.337L418.644 63.4075L414.005 76.3113ZM463.066 92.0679C459.209 92.0679 455.805 91.277 452.854 89.6951C449.904 88.1132 447.602 85.8737 445.949 82.9765C444.296 80.0794 443.47 76.6579 443.47 72.7121C443.47 69.8327 443.95 67.2022 444.91 64.8205C445.887 62.421 447.256 60.3503 449.015 58.6085C450.793 56.8667 452.881 55.5247 455.281 54.5827C457.698 53.6229 460.337 53.143 463.199 53.143C466.309 53.143 468.922 53.534 471.037 54.3161C473.152 55.0982 475.063 56.209 476.769 57.6487L472.344 64.9271C471.313 63.8607 470.069 63.0698 468.611 62.5543C467.154 62.0211 465.545 61.7545 463.785 61.7545C462.044 61.7545 460.488 62.0122 459.12 62.5276C457.769 63.0253 456.614 63.7452 455.654 64.6872C454.712 65.6292 453.992 66.7667 453.494 68.0998C452.997 69.4328 452.748 70.9258 452.748 72.5788C452.748 74.8539 453.192 76.8001 454.081 78.4175C454.987 80.035 456.276 81.2791 457.947 82.15C459.617 83.0032 461.617 83.4298 463.945 83.4298C465.616 83.4298 467.269 83.1809 468.904 82.6833C470.557 82.1678 472.121 81.3413 473.597 80.2038L477.649 87.6422C475.925 88.9752 473.863 90.0506 471.464 90.8682C469.064 91.668 466.265 92.0679 463.066 92.0679ZM487.287 91.2681V53.9428H496.138V83.1898H511.121V91.2681H487.287ZM537.424 92.0679C534.562 92.0679 531.914 91.5791 529.479 90.6015C527.061 89.6062 524.955 88.2287 523.16 86.4691C521.365 84.7095 519.97 82.6477 518.974 80.2838C517.997 77.9199 517.508 75.3604 517.508 72.6055C517.508 69.8327 517.997 67.2644 518.974 64.9005C519.97 62.5365 521.365 60.4748 523.16 58.7151C524.955 56.9555 527.061 55.5869 529.479 54.6094C531.914 53.6318 534.562 53.143 537.424 53.143C540.303 53.143 542.951 53.6407 545.369 54.636C547.786 55.6314 549.892 57.0177 551.687 58.7951C553.482 60.5725 554.869 62.6432 555.846 65.0071C556.842 67.3533 557.339 69.886 557.339 72.6055C557.339 75.3604 556.842 77.9199 555.846 80.2838C554.869 82.6477 553.482 84.7095 551.687 86.4691C549.892 88.2287 547.786 89.6062 545.369 90.6015C542.951 91.5791 540.303 92.0679 537.424 92.0679ZM537.424 83.7497C538.97 83.7497 540.383 83.492 541.663 82.9765C542.96 82.4611 544.089 81.7146 545.049 80.737C546.008 79.7595 546.746 78.5864 547.261 77.2178C547.795 75.8314 548.061 74.294 548.061 72.6055C548.061 70.3304 547.599 68.3575 546.675 66.6867C545.768 65.016 544.507 63.7274 542.889 62.8209C541.289 61.8967 539.468 61.4346 537.424 61.4346C535.895 61.4346 534.482 61.7012 533.185 62.2344C531.887 62.7498 530.758 63.4963 529.799 64.4739C528.857 65.4515 528.119 66.6245 527.586 67.9931C527.053 69.3617 526.786 70.8992 526.786 72.6055C526.786 74.8627 527.248 76.8268 528.172 78.4975C529.097 80.1683 530.358 81.4658 531.958 82.39C533.576 83.2965 535.397 83.7497 537.424 83.7497ZM583.877 92.0679C580.376 92.0679 577.434 91.3747 575.053 89.9883C572.689 88.602 570.902 86.7002 569.694 84.2829C568.485 81.8479 567.881 79.0574 567.881 75.9114V53.9428H576.732V76.2313C576.732 78.773 577.363 80.6659 578.625 81.9101C579.887 83.1365 581.638 83.7497 583.877 83.7497C586.099 83.7497 587.832 83.1365 589.076 81.9101C590.338 80.6659 590.969 78.773 590.969 76.2313V53.9428H599.847V75.9114C599.847 79.0396 599.243 81.8212 598.034 84.2563C596.826 86.6735 595.03 88.5842 592.649 89.9883C590.285 91.3747 587.361 92.0679 583.877 92.0679ZM612.716 91.2681V53.9428H625.513C629.388 53.9428 632.782 54.7338 635.697 56.3157C638.63 57.8975 640.914 60.0926 642.549 62.9009C644.184 65.6914 645.002 68.9263 645.002 72.6055C645.002 75.3782 644.531 77.911 643.589 80.2038C642.665 82.4789 641.34 84.4429 639.616 86.0959C637.892 87.7488 635.839 89.0286 633.458 89.935C631.076 90.8237 628.428 91.2681 625.513 91.2681H612.716ZM621.567 83.0299H625.06C626.659 83.0299 628.108 82.8077 629.405 82.3633C630.703 81.919 631.823 81.2525 632.765 80.3638C633.724 79.4751 634.453 78.382 634.951 77.0845C635.466 75.787 635.724 74.294 635.724 72.6055C635.724 70.3482 635.28 68.4464 634.391 66.9C633.502 65.3359 632.249 64.1628 630.632 63.3808C629.032 62.581 627.175 62.1811 625.06 62.1811H621.567V83.0299Z" fill="#FC4D47"/>
<path d="M662.699 91.2681L651.368 53.9428H660.513L666.965 78.0709L673.923 53.9428H682.775L689.733 78.0443L696.185 53.9428H705.116L693.785 91.2681H685.067L678.216 67.0333L671.337 91.2681H662.699ZM731.375 92.0679C728.514 92.0679 725.865 91.5791 723.43 90.6015C721.013 89.6062 718.907 88.2287 717.112 86.4691C715.316 84.7095 713.921 82.6477 712.926 80.2838C711.948 77.9199 711.46 75.3604 711.46 72.6055C711.46 69.8327 711.948 67.2644 712.926 64.9005C713.921 62.5365 715.316 60.4748 717.112 58.7151C718.907 56.9555 721.013 55.5869 723.43 54.6094C725.865 53.6318 728.514 53.143 731.375 53.143C734.255 53.143 736.903 53.6407 739.32 54.636C741.737 55.6314 743.844 57.0177 745.639 58.7951C747.434 60.5725 748.82 62.6432 749.798 65.0071C750.793 67.3533 751.291 69.886 751.291 72.6055C751.291 75.3604 750.793 77.9199 749.798 80.2838C748.82 82.6477 747.434 84.7095 745.639 86.4691C743.844 88.2287 741.737 89.6062 739.32 90.6015C736.903 91.5791 734.255 92.0679 731.375 92.0679ZM731.375 83.7497C732.922 83.7497 734.335 83.492 735.614 82.9765C736.912 82.4611 738.04 81.7146 739 80.737C739.96 79.7595 740.698 78.5864 741.213 77.2178C741.746 75.8314 742.013 74.294 742.013 72.6055C742.013 70.3304 741.551 68.3575 740.627 66.6867C739.72 65.016 738.458 63.7274 736.841 62.8209C735.241 61.8967 733.419 61.4346 731.375 61.4346C729.847 61.4346 728.434 61.7012 727.136 62.2344C725.839 62.7498 724.71 63.4963 723.75 64.4739C722.808 65.4515 722.071 66.6245 721.537 67.9931C721.004 69.3617 720.738 70.8992 720.738 72.6055C720.738 74.8627 721.2 76.8268 722.124 78.4975C723.048 80.1683 724.31 81.4658 725.91 82.39C727.527 83.2965 729.349 83.7497 731.375 83.7497ZM762.046 91.2681V53.9428H777.189C779.962 53.9428 782.379 54.3961 784.441 55.3026C786.52 56.1912 788.12 57.4887 789.24 59.195C790.377 60.9013 790.946 62.9453 790.946 65.327C790.946 67.1578 790.599 68.7752 789.906 70.1793C789.213 71.5657 788.262 72.721 787.053 73.6452C785.845 74.5695 784.476 75.2627 782.948 75.7248L792.999 91.2681H782.494L774.176 77.5377H770.897V91.2681H762.046ZM770.897 70.4459H776.123C777.971 70.4459 779.411 70.0816 780.442 69.3528C781.49 68.6241 782.015 67.4688 782.015 65.8869C782.015 64.2873 781.517 63.1142 780.522 62.3677C779.544 61.6034 778.14 61.2213 776.309 61.2213H770.897V70.4459ZM802.918 91.2681V53.9428H811.769V69.8594L824.433 53.9428H835.471L821.661 71.0858L837.257 91.2681H825.873L815.822 77.7777L811.769 82.39V91.2681H802.918ZM859.327 92.0679C856.501 92.0679 853.755 91.6502 851.089 90.8148C848.423 89.9795 846.165 88.7708 844.317 87.189L848.476 80.5771C849.258 81.4124 850.253 82.1323 851.462 82.7366C852.671 83.3409 853.959 83.8119 855.328 84.1496C856.714 84.4695 858.056 84.6295 859.354 84.6295C861.184 84.6295 862.668 84.3274 863.806 83.723C864.961 83.101 865.539 82.2034 865.539 81.0303C865.539 80.0705 865.121 79.2618 864.286 78.6042C863.468 77.9465 861.931 77.3155 859.674 76.7112L856.474 75.8048C852.635 74.7383 849.871 73.2809 848.183 71.4324C846.494 69.5839 845.65 67.3622 845.65 64.7672C845.65 63.0964 846.005 61.559 846.716 60.1548C847.427 58.7329 848.423 57.5065 849.702 56.4756C850.982 55.427 852.484 54.6183 854.208 54.0495C855.95 53.463 857.843 53.1697 859.887 53.1697C862.713 53.1697 865.335 53.5874 867.752 54.4227C870.187 55.2403 872.142 56.3601 873.617 57.782L869.298 64.1806C868.623 63.4697 867.787 62.8476 866.792 62.3144C865.797 61.7811 864.712 61.3635 863.539 61.0613C862.366 60.7591 861.184 60.6081 859.993 60.6081C858.82 60.6081 857.798 60.7591 856.927 61.0613C856.057 61.3635 855.372 61.7989 854.875 62.3677C854.395 62.9187 854.155 63.5763 854.155 64.3406C854.155 64.9627 854.332 65.487 854.688 65.9136C855.061 66.3224 855.674 66.7134 856.528 67.0867C857.398 67.4599 858.572 67.8687 860.047 68.3131L863.299 69.2728C867.121 70.3926 869.885 71.7967 871.591 73.4853C873.297 75.1738 874.15 77.3689 874.15 80.0705C874.15 82.4344 873.546 84.5229 872.337 86.3358C871.129 88.131 869.414 89.5351 867.192 90.5482C864.988 91.5613 862.366 92.0679 859.327 92.0679Z" fill="#17181C"/>
<path d="M115.133 0H122.712C142.115 2.81524 153.853 6.60239 166.841 23.4075C185.334 25.2155 200.392 30.8465 212.872 45.6208C230.738 66.7734 228.156 105.513 206.685 123.181C196.132 131.866 182.664 136.455 169.419 138.851C167.034 139.306 158.356 140.408 156.628 140.922H67.7107C64.9947 140.114 58.6273 139.729 55.5676 139.268C29.8589 135.394 6.43459 121.919 1.69015 93.8216C1.03814 89.9603 0.898716 84.4111 0 80.7699V79.7785C0.16959 79.218 0.366987 77.7615 0.393572 77.1627C1.69873 48.4319 25.2369 28.397 52.0304 24.6651C58.4525 23.7706 62.9726 23.8205 69.4372 24.2647C69.664 23.9248 69.8984 23.5901 70.1404 23.261C78.9731 11.2051 93.0792 3.60903 107.545 1.07208C110.062 0.630667 112.606 0.374014 115.133 0ZM80.1713 79.2846L69.7412 88.63C59.0026 73.2369 57.776 55.6241 62.6741 37.93C48.2969 39.0704 36.1486 43.4456 26.3463 54.6187C11.882 71.1055 13.9905 100.73 30.6724 114.871C46.2207 128.051 64.4664 126.74 83.2636 126.74L129.654 126.721C151.483 126.76 176.566 125.996 193.426 109.775C202.301 101.236 205.69 89.0275 205.839 76.9191C206.141 52.3016 187.846 38.3269 164.452 38.391C158.056 38.3847 151.695 39.3477 145.58 41.2477C133.798 45.0192 107.34 60.5658 96.4208 67.6337C104.399 56.084 120.307 38.9501 132.37 31.439C137.53 28.2265 144.112 25.9915 150.017 24.6155C140.022 16.0891 129.413 13.279 116.492 13.7485C89.7674 16.774 71.779 34.4785 74.7819 62.8756C75.4397 69.0983 77.1898 73.8237 80.1713 79.2846Z" fill="#FC4D47"/>
</svg>
