<svg width="236" height="32" viewBox="0 0 236 32" fill="none" xmlns="http://www.w3.org/2000/svg">
<path d="M59.2707 24V13.2187H61.7273L65.8242 20.0186L64.8076 20.0263L68.7043 13.2187H71.1532V24H68.6735L68.7197 16.4839L69.1741 16.6456L66.0629 21.967H64.361L61.1266 16.6456L61.5655 16.4839L61.6117 24H59.2707ZM74.927 24V13.2187H82.5048V15.4366H77.4837V17.4388H81.6962V19.4872H77.4837V21.759H82.5664V24H74.927ZM91.3418 24.231C90.5101 24.231 89.7272 24.1027 88.993 23.846C88.2589 23.5893 87.612 23.2196 87.0524 22.737C86.4979 22.2493 86.0615 21.6589 85.7432 20.9658C85.4249 20.2727 85.2658 19.4898 85.2658 18.617C85.2658 17.7494 85.4172 16.9716 85.7201 16.2837C86.0282 15.5906 86.4543 14.9976 86.9985 14.5047C87.5427 14.0119 88.1742 13.6371 88.8929 13.3804C89.6117 13.1186 90.3843 12.9877 91.2109 12.9877C91.5908 12.9877 91.9887 13.0185 92.4046 13.0801C92.8204 13.1365 93.244 13.2392 93.6752 13.3881C94.1065 13.537 94.53 13.7475 94.9459 14.0196L93.8831 15.9987C93.5135 15.7574 93.1207 15.5803 92.7049 15.4674C92.289 15.3493 91.8475 15.2902 91.3803 15.2902C90.8413 15.2902 90.3561 15.3672 89.9248 15.5213C89.4936 15.6753 89.1265 15.8986 88.8236 16.1912C88.5258 16.4787 88.2974 16.8279 88.1382 17.2386C87.9791 17.6493 87.8995 18.1139 87.8995 18.6324C87.8995 19.3769 88.0587 20.0006 88.377 20.5038C88.6953 21.0018 89.1265 21.3791 89.6707 21.6358C90.2149 21.8874 90.8233 22.0132 91.4958 22.0132C91.7628 22.0132 92.0169 21.9901 92.2582 21.9438C92.4995 21.8976 92.7126 21.8437 92.8974 21.7821V19.8723H90.6949V17.8392H95.1384V23.3377C94.8149 23.5225 94.4299 23.6817 93.9832 23.8152C93.5417 23.9487 93.0874 24.0513 92.6202 24.1232C92.1581 24.1951 91.732 24.231 91.3418 24.231ZM97.5477 24L101.575 13.2187H104.54L108.606 24H105.726L104.964 21.8129H101.098L100.351 24H97.5477ZM101.675 19.6798H104.371L103.015 15.9525L101.675 19.6798ZM115.846 24.231C114.732 24.231 113.749 24.0026 112.897 23.5456C112.045 23.0887 111.38 22.4418 110.902 21.605C110.425 20.7682 110.186 19.7799 110.186 18.6401C110.186 17.8084 110.325 17.0486 110.602 16.3607C110.884 15.6676 111.28 15.0695 111.788 14.5663C112.301 14.0632 112.905 13.6756 113.598 13.4035C114.296 13.1263 115.058 12.9877 115.885 12.9877C116.783 12.9877 117.538 13.1006 118.149 13.3265C118.76 13.5524 119.312 13.8733 119.805 14.2891L118.526 16.3915C118.228 16.0834 117.869 15.855 117.448 15.7061C117.027 15.5521 116.563 15.4751 116.054 15.4751C115.551 15.4751 115.102 15.5495 114.707 15.6984C114.316 15.8421 113.983 16.0501 113.705 16.3222C113.433 16.5943 113.225 16.9228 113.082 17.3079C112.938 17.6929 112.866 18.1242 112.866 18.6016C112.866 19.2588 112.994 19.821 113.251 20.2881C113.513 20.7553 113.885 21.1147 114.368 21.3663C114.85 21.6127 115.428 21.7359 116.1 21.7359C116.583 21.7359 117.061 21.664 117.533 21.5203C118.01 21.3714 118.462 21.1327 118.888 20.8041L120.059 22.9527C119.561 23.3377 118.965 23.6483 118.272 23.8845C117.579 24.1155 116.77 24.231 115.846 24.231ZM122.843 24V13.2187H125.399V21.6666H129.727V24H122.843ZM137.324 24.231C136.498 24.231 135.733 24.0898 135.03 23.8075C134.331 23.52 133.723 23.1221 133.204 22.6138C132.686 22.1056 132.283 21.51 131.995 20.8272C131.713 20.1444 131.572 19.4051 131.572 18.6093C131.572 17.8084 131.713 17.0666 131.995 16.3838C132.283 15.701 132.686 15.1054 133.204 14.5972C133.723 14.0889 134.331 13.6936 135.03 13.4112C135.733 13.1288 136.498 12.9877 137.324 12.9877C138.156 12.9877 138.921 13.1314 139.619 13.4189C140.318 13.7064 140.926 14.1069 141.444 14.6203C141.963 15.1337 142.363 15.7318 142.646 16.4146C142.933 17.0923 143.077 17.8238 143.077 18.6093C143.077 19.4051 142.933 20.1444 142.646 20.8272C142.363 21.51 141.963 22.1056 141.444 22.6138C140.926 23.1221 140.318 23.52 139.619 23.8075C138.921 24.0898 138.156 24.231 137.324 24.231ZM137.324 21.8283C137.771 21.8283 138.179 21.7539 138.549 21.605C138.924 21.4561 139.25 21.2405 139.527 20.9581C139.804 20.6758 140.017 20.3369 140.166 19.9416C140.32 19.5412 140.397 19.0971 140.397 18.6093C140.397 17.9522 140.264 17.3823 139.997 16.8997C139.735 16.4171 139.37 16.0449 138.903 15.7831C138.441 15.5161 137.915 15.3826 137.324 15.3826C136.883 15.3826 136.475 15.4597 136.1 15.6137C135.725 15.7626 135.399 15.9782 135.122 16.2606C134.85 16.5429 134.637 16.8818 134.483 17.2771C134.329 17.6724 134.252 18.1165 134.252 18.6093C134.252 19.2614 134.385 19.8287 134.652 20.3112C134.919 20.7938 135.284 21.1686 135.746 21.4356C136.213 21.6974 136.739 21.8283 137.324 21.8283ZM150.743 24.231C149.731 24.231 148.881 24.0308 148.194 23.6304C147.511 23.2299 146.995 22.6806 146.646 21.9824C146.297 21.279 146.122 20.473 146.122 19.5643V13.2187H148.679V19.6567C148.679 20.3908 148.861 20.9376 149.225 21.297C149.59 21.6512 150.096 21.8283 150.743 21.8283C151.384 21.8283 151.885 21.6512 152.244 21.297C152.609 20.9376 152.791 20.3908 152.791 19.6567V13.2187H155.355V19.5643C155.355 20.4678 155.181 21.2713 154.832 21.9747C154.483 22.6729 153.964 23.2248 153.276 23.6304C152.593 24.0308 151.749 24.231 150.743 24.231ZM159.072 24V13.2187H162.769C163.888 13.2187 164.869 13.4471 165.711 13.9041C166.558 14.361 167.217 14.995 167.69 15.8062C168.162 16.6122 168.398 17.5466 168.398 18.6093C168.398 19.4102 168.262 20.1418 167.99 20.8041C167.723 21.4613 167.341 22.0286 166.843 22.506C166.345 22.9835 165.752 23.3531 165.064 23.615C164.376 23.8717 163.611 24 162.769 24H159.072ZM161.629 21.6204H162.638C163.1 21.6204 163.518 21.5562 163.893 21.4279C164.268 21.2995 164.591 21.107 164.864 20.8503C165.141 20.5936 165.351 20.2779 165.495 19.9031C165.644 19.5283 165.718 19.0971 165.718 18.6093C165.718 17.9573 165.59 17.408 165.333 16.9613C165.077 16.5096 164.715 16.1707 164.247 15.9448C163.785 15.7138 163.249 15.5983 162.638 15.5983H161.629V21.6204Z" fill="#FC4D47"/>
<path d="M173.51 24L170.237 13.2187H172.879L174.742 20.188L176.752 13.2187H179.309L181.319 20.1803L183.182 13.2187H185.762L182.489 24H179.971L177.992 16.9998L176.005 24H173.51ZM193.347 24.231C192.52 24.231 191.755 24.0898 191.052 23.8075C190.354 23.52 189.746 23.1221 189.227 22.6138C188.708 22.1056 188.305 21.51 188.018 20.8272C187.736 20.1444 187.594 19.4051 187.594 18.6093C187.594 17.8084 187.736 17.0666 188.018 16.3838C188.305 15.701 188.708 15.1054 189.227 14.5972C189.746 14.0889 190.354 13.6936 191.052 13.4112C191.755 13.1288 192.52 12.9877 193.347 12.9877C194.179 12.9877 194.944 13.1314 195.642 13.4189C196.34 13.7064 196.948 14.1069 197.467 14.6203C197.986 15.1337 198.386 15.7318 198.668 16.4146C198.956 17.0923 199.1 17.8238 199.1 18.6093C199.1 19.4051 198.956 20.1444 198.668 20.8272C198.386 21.51 197.986 22.1056 197.467 22.6138C196.948 23.1221 196.34 23.52 195.642 23.8075C194.944 24.0898 194.179 24.231 193.347 24.231ZM193.347 21.8283C193.794 21.8283 194.202 21.7539 194.571 21.605C194.946 21.4561 195.272 21.2405 195.549 20.9581C195.827 20.6758 196.04 20.3369 196.189 19.9416C196.343 19.5412 196.42 19.0971 196.42 18.6093C196.42 17.9522 196.286 17.3823 196.019 16.8997C195.757 16.4171 195.393 16.0449 194.926 15.7831C194.464 15.5161 193.937 15.3826 193.347 15.3826C192.905 15.3826 192.497 15.4597 192.123 15.6137C191.748 15.7626 191.422 15.9782 191.145 16.2606C190.872 16.5429 190.659 16.8818 190.505 17.2771C190.351 17.6724 190.274 18.1165 190.274 18.6093C190.274 19.2614 190.408 19.8287 190.675 20.3112C190.942 20.7938 191.306 21.1686 191.768 21.4356C192.236 21.6974 192.762 21.8283 193.347 21.8283ZM202.206 24V13.2187H206.58C207.381 13.2187 208.079 13.3496 208.675 13.6114C209.276 13.8681 209.738 14.2429 210.061 14.7358C210.39 15.2286 210.554 15.819 210.554 16.507C210.554 17.0358 210.454 17.503 210.254 17.9086C210.053 18.309 209.779 18.6427 209.43 18.9097C209.08 19.1766 208.685 19.3769 208.244 19.5104L211.147 24H208.113L205.71 20.034H204.763V24H202.206ZM204.763 17.9856H206.272C206.806 17.9856 207.222 17.8803 207.52 17.6698C207.823 17.4593 207.974 17.1256 207.974 16.6687C207.974 16.2066 207.83 15.8678 207.543 15.6522C207.26 15.4314 206.855 15.321 206.326 15.321H204.763V17.9856ZM214.012 24V13.2187H216.569V17.8161L220.227 13.2187H223.415L219.426 18.1704L223.931 24H220.643L217.739 20.1033L216.569 21.4356V24H214.012ZM230.306 24.231C229.489 24.231 228.696 24.1104 227.926 23.8691C227.156 23.6278 226.504 23.2787 225.97 22.8218L227.171 20.9119C227.397 21.1532 227.685 21.3611 228.034 21.5357C228.383 21.7103 228.755 21.8463 229.15 21.9438C229.551 22.0363 229.939 22.0825 230.313 22.0825C230.842 22.0825 231.271 21.9952 231.599 21.8206C231.933 21.6409 232.1 21.3817 232.1 21.0428C232.1 20.7656 231.979 20.532 231.738 20.3421C231.502 20.1521 231.058 19.9698 230.406 19.7953L229.482 19.5335C228.373 19.2254 227.574 18.8044 227.087 18.2705C226.599 17.7366 226.355 17.0948 226.355 16.3453C226.355 15.8627 226.458 15.4186 226.663 15.013C226.868 14.6023 227.156 14.248 227.526 13.9503C227.895 13.6474 228.329 13.4138 228.827 13.2495C229.33 13.0801 229.877 12.9954 230.467 12.9954C231.284 12.9954 232.041 13.116 232.739 13.3573C233.442 13.5935 234.007 13.9169 234.433 14.3276L233.186 16.1758C232.991 15.9705 232.749 15.7908 232.462 15.6368C232.174 15.4828 231.861 15.3621 231.522 15.2748C231.184 15.1876 230.842 15.1439 230.498 15.1439C230.159 15.1439 229.864 15.1876 229.613 15.2748C229.361 15.3621 229.163 15.4879 229.02 15.6522C228.881 15.8113 228.812 16.0013 228.812 16.2221C228.812 16.4017 228.863 16.5532 228.966 16.6764C229.073 16.7945 229.251 16.9074 229.497 17.0152C229.749 17.1231 230.087 17.2411 230.514 17.3695L231.453 17.6467C232.557 17.9702 233.355 18.3757 233.848 18.8635C234.341 19.3512 234.587 19.9852 234.587 20.7656C234.587 21.4484 234.413 22.0517 234.064 22.5753C233.715 23.0939 233.219 23.4994 232.577 23.7921C231.941 24.0847 231.184 24.231 230.306 24.231Z" fill="#17181C"/>
<path d="M26.1441 0H27.8649C32.271 0.639274 34.9363 1.49925 37.8857 5.31529C42.085 5.72583 45.5042 7.00452 48.3381 10.3594C52.3953 15.1627 51.8089 23.9594 46.9333 27.9716C44.537 29.9436 41.4786 30.9858 38.471 31.5299C37.9294 31.633 35.9589 31.8834 35.5665 32H15.3755C14.7588 31.8165 13.3129 31.7292 12.6181 31.6245C6.78025 30.7448 1.46114 27.6849 0.383793 21.3047C0.235736 20.4279 0.204077 19.1678 0 18.3409V18.1158C0.0385099 17.9885 0.0833342 17.6578 0.089371 17.5218C0.385741 10.9977 5.7307 6.44828 11.8149 5.60085C13.2732 5.39774 14.2996 5.40908 15.7676 5.50995C15.819 5.43275 15.8723 5.35676 15.9272 5.28203C17.9329 2.54441 21.1361 0.819526 24.4209 0.243444C24.9925 0.14321 25.5702 0.0849298 26.1441 0ZM18.205 18.0037L15.8366 20.1258C13.3981 16.6304 13.1196 12.6309 14.2318 8.61301C10.9671 8.87196 8.2085 9.86547 5.98263 12.4026C2.69811 16.1464 3.17692 22.8735 6.96498 26.0845C10.4956 29.0774 14.6388 28.7796 18.9072 28.7797L29.4413 28.7753C34.3981 28.7842 40.0939 28.6108 43.9225 24.9273C45.9378 22.9884 46.7073 20.216 46.7411 17.4665C46.8098 11.8765 42.6554 8.70312 37.3432 8.71769C35.8908 8.71626 34.4464 8.93493 33.0579 9.36637C30.3823 10.2228 24.3744 13.7531 21.8949 15.358C23.7066 12.7354 27.3188 8.84466 30.0582 7.13906C31.2298 6.40957 32.7243 5.90205 34.0654 5.5896C31.7956 3.65344 29.3866 3.01534 26.4525 3.12195C20.3841 3.80899 16.2993 7.82925 16.9812 14.2776C17.1306 15.6906 17.528 16.7636 18.205 18.0037Z" fill="#FC4D47"/>
</svg>
