<svg viewBox="0 0 231 141" fill="none" xmlns="http://www.w3.org/2000/svg">
<path d="M115.133 0H122.712C142.115 2.81524 153.853 6.60239 166.841 23.4075C185.334 25.2155 200.392 30.8465 212.872 45.6208C230.738 66.7734 228.156 105.513 206.685 123.181C196.132 131.866 182.664 136.455 169.419 138.851C167.034 139.306 158.356 140.408 156.628 140.922H67.7107C64.9947 140.114 58.6273 139.729 55.5676 139.268C29.8589 135.394 6.43459 121.919 1.69015 93.8216C1.03814 89.9603 0.898716 84.4111 0 80.7699V79.7785C0.16959 79.218 0.366987 77.7615 0.393572 77.1627C1.69873 48.4319 25.2369 28.397 52.0304 24.6651C58.4525 23.7706 62.9726 23.8205 69.4372 24.2647C69.664 23.9248 69.8984 23.5901 70.1404 23.261C78.9731 11.2051 93.0792 3.60903 107.545 1.07208C110.062 0.630667 112.606 0.374014 115.133 0ZM80.1713 79.2846L69.7412 88.63C59.0026 73.2369 57.776 55.6241 62.6741 37.93C48.2969 39.0704 36.1486 43.4456 26.3463 54.6187C11.882 71.1055 13.9905 100.73 30.6724 114.871C46.2207 128.051 64.4664 126.74 83.2636 126.74L129.654 126.721C151.483 126.76 176.566 125.996 193.426 109.775C202.301 101.236 205.69 89.0275 205.839 76.9191C206.141 52.3016 187.846 38.3269 164.452 38.391C158.056 38.3847 151.695 39.3477 145.58 41.2477C133.798 45.0192 107.34 60.5658 96.4208 67.6337C104.399 56.084 120.307 38.9501 132.37 31.439C137.53 28.2265 144.112 25.9915 150.017 24.6155C140.022 16.0891 129.413 13.279 116.492 13.7485C89.7674 16.774 71.779 34.4785 74.7819 62.8756C75.4397 69.0983 77.1898 73.8237 80.1713 79.2846Z" fill="#FC4D47"/>
</svg>
