# https://github.com/mikedh/trimesh

o geometry_0
v 43.27876505 61.18168432 -4.30000000
v 43.33352245 61.87744309 -4.30000000
v 43.32743211 62.57532671 -4.30000000
v 43.26054038 63.27002387 -4.30000000
v 43.13335635 63.95624750 -4.30000000
v 42.94684797 64.62877502 -4.30000000
v 42.70243466 65.28248809 -4.30000000
v 42.40197658 65.91241157 -4.30000000
v 42.04776038 66.51375134 -4.30000000
v 41.64248186 67.08193087 -4.30000000
v 41.18922545 67.61262595 -4.30000000
v 40.69144069 68.10179767 -4.30000000
v 40.15291602 68.54572315 -4.30000000
v 39.57774995 68.94102383 -4.30000000
v 38.97031983 69.28469126 -4.30000000
v 38.33524858 69.57410990 -4.30000000
v 37.67736947 69.80707711 -4.30000000
v 37.00168936 69.98181987 -4.30000000
v -18.27668776 76.79982217 -4.30000000
v -18.97244653 76.85457957 -4.30000000
v -19.67033016 76.84848923 -4.30000000
v -20.36502731 76.78159750 -4.30000000
v -21.05125094 76.65441347 -4.30000000
v -21.72377846 76.46790508 -4.30000000
v -22.37749153 76.22349178 -4.30000000
v -23.00741501 75.92303369 -4.30000000
v -23.60875479 75.56881750 -4.30000000
v -24.17693431 75.16353898 -4.30000000
v -24.70762939 74.71028256 -4.30000000
v -25.19680111 74.21249780 -4.30000000
v -25.64072659 73.67397314 -4.30000000
v -26.03602727 73.09880707 -4.30000000
v -26.37969470 72.49137695 -4.30000000
v -26.66911334 71.85630570 -4.30000000
v -26.90208055 71.19842659 -4.30000000
v -27.07682331 70.52274648 -4.30000000
v -43.27876505 -61.18168432 -4.30000000
v -43.33352245 -61.87744309 -4.30000000
v -43.32743211 -62.57532671 -4.30000000
v -43.26054038 -63.27002387 -4.30000000
v -43.13335635 -63.95624750 -4.30000000
v -42.94684797 -64.62877502 -4.30000000
v -42.70243466 -65.28248809 -4.30000000
v -42.40197658 -65.91241157 -4.30000000
v -42.04776038 -66.51375134 -4.30000000
v -41.64248186 -67.08193087 -4.30000000
v -41.18922545 -67.61262595 -4.30000000
v -40.69144069 -68.10179767 -4.30000000
v -40.15291602 -68.54572315 -4.30000000
v -39.57774995 -68.94102383 -4.30000000
v -38.97031983 -69.28469126 -4.30000000
v -38.33524858 -69.57410990 -4.30000000
v -37.67736947 -69.80707711 -4.30000000
v -37.00168936 -69.98181987 -4.30000000
v 18.27668776 -76.79982217 -4.30000000
v 18.97244653 -76.85457957 -4.30000000
v 19.67033016 -76.84848923 -4.30000000
v 20.36502731 -76.78159750 -4.30000000
v 21.05125094 -76.65441347 -4.30000000
v 21.72377846 -76.46790508 -4.30000000
v 22.37749153 -76.22349178 -4.30000000
v 23.00741501 -75.92303369 -4.30000000
v 23.60875479 -75.56881750 -4.30000000
v 24.17693431 -75.16353898 -4.30000000
v 24.70762939 -74.71028256 -4.30000000
v 25.19680111 -74.21249780 -4.30000000
v 25.64072659 -73.67397314 -4.30000000
v 26.03602727 -73.09880707 -4.30000000
v 26.37969470 -72.49137695 -4.30000000
v 26.66911334 -71.85630570 -4.30000000
v 26.90208055 -71.19842659 -4.30000000
v 27.07682331 -70.52274648 -4.30000000
v 43.27876505 61.18168432 4.30000000
v 43.33352245 61.87744309 4.30000000
v 43.32743211 62.57532671 4.30000000
v 43.26054038 63.27002387 4.30000000
v 43.13335635 63.95624750 4.30000000
v 42.94684797 64.62877502 4.30000000
v 42.70243466 65.28248809 4.30000000
v 42.40197658 65.91241157 4.30000000
v 42.04776038 66.51375134 4.30000000
v 41.64248186 67.08193087 4.30000000
v 41.18922545 67.61262595 4.30000000
v 40.69144069 68.10179767 4.30000000
v 40.15291602 68.54572315 4.30000000
v 39.57774995 68.94102383 4.30000000
v 38.97031983 69.28469126 4.30000000
v 38.33524858 69.57410990 4.30000000
v 37.67736947 69.80707711 4.30000000
v 37.00168936 69.98181987 4.30000000
v -18.27668776 76.79982217 4.30000000
v -18.97244653 76.85457957 4.30000000
v -19.67033016 76.84848923 4.30000000
v -20.36502731 76.78159750 4.30000000
v -21.05125094 76.65441347 4.30000000
v -21.72377846 76.46790508 4.30000000
v -22.37749153 76.22349178 4.30000000
v -23.00741501 75.92303369 4.30000000
v -23.60875479 75.56881750 4.30000000
v -24.17693431 75.16353898 4.30000000
v -24.70762939 74.71028256 4.30000000
v -25.19680111 74.21249780 4.30000000
v -25.64072659 73.67397314 4.30000000
v -26.03602727 73.09880707 4.30000000
v -26.37969470 72.49137695 4.30000000
v -26.66911334 71.85630570 4.30000000
v -26.90208055 71.19842659 4.30000000
v -27.07682331 70.52274648 4.30000000
v -43.27876505 -61.18168432 4.30000000
v -43.33352245 -61.87744309 4.30000000
v -43.32743211 -62.57532671 4.30000000
v -43.26054038 -63.27002387 4.30000000
v -43.13335635 -63.95624750 4.30000000
v -42.94684797 -64.62877502 4.30000000
v -42.70243466 -65.28248809 4.30000000
v -42.40197658 -65.91241157 4.30000000
v -42.04776038 -66.51375134 4.30000000
v -41.64248186 -67.08193087 4.30000000
v -41.18922545 -67.61262595 4.30000000
v -40.69144069 -68.10179767 4.30000000
v -40.15291602 -68.54572315 4.30000000
v -39.57774995 -68.94102383 4.30000000
v -38.97031983 -69.28469126 4.30000000
v -38.33524858 -69.57410990 4.30000000
v -37.67736947 -69.80707711 4.30000000
v -37.00168936 -69.98181987 4.30000000
v 18.27668776 -76.79982217 4.30000000
v 18.97244653 -76.85457957 4.30000000
v 19.67033016 -76.84848923 4.30000000
v 20.36502731 -76.78159750 4.30000000
v 21.05125094 -76.65441347 4.30000000
v 21.72377846 -76.46790508 4.30000000
v 22.37749153 -76.22349178 4.30000000
v 23.00741501 -75.92303369 4.30000000
v 23.60875479 -75.56881750 4.30000000
v 24.17693431 -75.16353898 4.30000000
v 24.70762939 -74.71028256 4.30000000
v 25.19680111 -74.21249780 4.30000000
v 25.64072659 -73.67397314 4.30000000
v 26.03602727 -73.09880707 4.30000000
v 26.37969470 -72.49137695 4.30000000
v 26.66911334 -71.85630570 4.30000000
v 26.90208055 -71.19842659 4.30000000
v 27.07682331 -70.52274648 4.30000000
f 1 3 2
f 73 74 75
f 1 4 3
f 73 75 76
f 1 5 4
f 73 76 77
f 1 6 5
f 73 77 78
f 1 7 6
f 73 78 79
f 1 8 7
f 73 79 80
f 1 9 8
f 73 80 81
f 1 10 9
f 73 81 82
f 1 11 10
f 73 82 83
f 1 12 11
f 73 83 84
f 1 13 12
f 73 84 85
f 1 14 13
f 73 85 86
f 1 15 14
f 73 86 87
f 1 16 15
f 73 87 88
f 1 17 16
f 73 88 89
f 1 18 17
f 73 89 90
f 1 19 18
f 73 90 91
f 1 20 19
f 73 91 92
f 1 21 20
f 73 92 93
f 1 22 21
f 73 93 94
f 1 23 22
f 73 94 95
f 1 24 23
f 73 95 96
f 1 25 24
f 73 96 97
f 1 26 25
f 73 97 98
f 1 27 26
f 73 98 99
f 1 28 27
f 73 99 100
f 1 29 28
f 73 100 101
f 1 30 29
f 73 101 102
f 1 31 30
f 73 102 103
f 1 32 31
f 73 103 104
f 1 33 32
f 73 104 105
f 1 34 33
f 73 105 106
f 1 35 34
f 73 106 107
f 1 36 35
f 73 107 108
f 1 37 36
f 73 108 109
f 1 38 37
f 73 109 110
f 1 39 38
f 73 110 111
f 1 40 39
f 73 111 112
f 1 41 40
f 73 112 113
f 1 42 41
f 73 113 114
f 1 43 42
f 73 114 115
f 1 44 43
f 73 115 116
f 1 45 44
f 73 116 117
f 1 46 45
f 73 117 118
f 1 47 46
f 73 118 119
f 1 48 47
f 73 119 120
f 1 49 48
f 73 120 121
f 1 50 49
f 73 121 122
f 1 51 50
f 73 122 123
f 1 52 51
f 73 123 124
f 1 53 52
f 73 124 125
f 1 54 53
f 73 125 126
f 1 55 54
f 73 126 127
f 1 56 55
f 73 127 128
f 1 57 56
f 73 128 129
f 1 58 57
f 73 129 130
f 1 59 58
f 73 130 131
f 1 60 59
f 73 131 132
f 1 61 60
f 73 132 133
f 1 62 61
f 73 133 134
f 1 63 62
f 73 134 135
f 1 64 63
f 73 135 136
f 1 65 64
f 73 136 137
f 1 66 65
f 73 137 138
f 1 67 66
f 73 138 139
f 1 68 67
f 73 139 140
f 1 69 68
f 73 140 141
f 1 70 69
f 73 141 142
f 1 71 70
f 73 142 143
f 1 72 71
f 73 143 144
f 1 2 74
f 2 3 75
f 3 4 76
f 4 5 77
f 5 6 78
f 6 7 79
f 7 8 80
f 8 9 81
f 9 10 82
f 10 11 83
f 11 12 84
f 12 13 85
f 13 14 86
f 14 15 87
f 15 16 88
f 16 17 89
f 17 18 90
f 18 19 91
f 19 20 92
f 20 21 93
f 21 22 94
f 22 23 95
f 23 24 96
f 24 25 97
f 25 26 98
f 26 27 99
f 27 28 100
f 28 29 101
f 29 30 102
f 30 31 103
f 31 32 104
f 32 33 105
f 33 34 106
f 34 35 107
f 35 36 108
f 36 37 109
f 37 38 110
f 38 39 111
f 39 40 112
f 40 41 113
f 41 42 114
f 42 43 115
f 43 44 116
f 44 45 117
f 45 46 118
f 46 47 119
f 47 48 120
f 48 49 121
f 49 50 122
f 50 51 123
f 51 52 124
f 52 53 125
f 53 54 126
f 54 55 127
f 55 56 128
f 56 57 129
f 57 58 130
f 58 59 131
f 59 60 132
f 60 61 133
f 61 62 134
f 62 63 135
f 63 64 136
f 64 65 137
f 65 66 138
f 66 67 139
f 67 68 140
f 68 69 141
f 69 70 142
f 70 71 143
f 71 72 144
f 72 1 73
f 1 74 73
f 2 75 74
f 3 76 75
f 4 77 76
f 5 78 77
f 6 79 78
f 7 80 79
f 8 81 80
f 9 82 81
f 10 83 82
f 11 84 83
f 12 85 84
f 13 86 85
f 14 87 86
f 15 88 87
f 16 89 88
f 17 90 89
f 18 91 90
f 19 92 91
f 20 93 92
f 21 94 93
f 22 95 94
f 23 96 95
f 24 97 96
f 25 98 97
f 26 99 98
f 27 100 99
f 28 101 100
f 29 102 101
f 30 103 102
f 31 104 103
f 32 105 104
f 33 106 105
f 34 107 106
f 35 108 107
f 36 109 108
f 37 110 109
f 38 111 110
f 39 112 111
f 40 113 112
f 41 114 113
f 42 115 114
f 43 116 115
f 44 117 116
f 45 118 117
f 46 119 118
f 47 120 119
f 48 121 120
f 49 122 121
f 50 123 122
f 51 124 123
f 52 125 124
f 53 126 125
f 54 127 126
f 55 128 127
f 56 129 128
f 57 130 129
f 58 131 130
f 59 132 131
f 60 133 132
f 61 134 133
f 62 135 134
f 63 136 135
f 64 137 136
f 65 138 137
f 66 139 138
f 67 140 139
f 68 141 140
f 69 142 141
f 70 143 142
f 71 144 143
f 72 73 144

o geometry_1
v 41.72901115 60.86821526 4.40000000
v 41.77692388 61.47700418 4.40000000
v 41.77159483 62.08765235 4.40000000
v 41.71306457 62.69551237 4.40000000
v 41.60177854 63.29595804 4.40000000
v 41.43858370 63.88441962 4.40000000
v 41.22472206 64.45641856 4.40000000
v 40.96182124 65.00760160 4.40000000
v 40.65188206 65.53377391 4.40000000
v 40.29726336 66.03093099 4.40000000
v 39.90066400 66.49528918 4.40000000
v 39.46510233 66.92331444 4.40000000
v 38.99389325 67.31174923 4.40000000
v 38.49062294 67.65763733 4.40000000
v 37.95912159 67.95834633 4.40000000
v 37.40343424 68.21158764 4.40000000
v 36.82779002 68.41543395 4.40000000
v 36.23656992 68.56833387 4.40000000
v -17.96321870 75.25006827 4.40000000
v -18.57200762 75.29798099 4.40000000
v -19.18265579 75.29265195 4.40000000
v -19.79051581 75.23412169 4.40000000
v -20.39096148 75.12283566 4.40000000
v -20.97942306 74.95964082 4.40000000
v -21.55142200 74.74577918 4.40000000
v -22.10260504 74.48287835 4.40000000
v -22.62877735 74.17293918 4.40000000
v -23.12593443 73.81832048 4.40000000
v -23.59029262 73.42172112 4.40000000
v -24.01831788 72.98615945 4.40000000
v -24.40675267 72.51495037 4.40000000
v -24.75264077 72.01168005 4.40000000
v -25.05334977 71.48017870 4.40000000
v -25.30659108 70.92449136 4.40000000
v -25.51043739 70.34884714 4.40000000
v -25.66333731 69.75762704 4.40000000
v -41.72901115 -60.86821526 4.40000000
v -41.77692388 -61.47700418 4.40000000
v -41.77159483 -62.08765235 4.40000000
v -41.71306457 -62.69551237 4.40000000
v -41.60177854 -63.29595804 4.40000000
v -41.43858370 -63.88441962 4.40000000
v -41.22472206 -64.45641856 4.40000000
v -40.96182124 -65.00760160 4.40000000
v -40.65188206 -65.53377391 4.40000000
v -40.29726336 -66.03093099 4.40000000
v -39.90066400 -66.49528918 4.40000000
v -39.46510233 -66.92331444 4.40000000
v -38.99389325 -67.31174923 4.40000000
v -38.49062294 -67.65763733 4.40000000
v -37.95912159 -67.95834633 4.40000000
v -37.40343424 -68.21158764 4.40000000
v -36.82779002 -68.41543395 4.40000000
v -36.23656992 -68.56833387 4.40000000
v 17.96321870 -75.25006827 4.40000000
v 18.57200762 -75.29798099 4.40000000
v 19.18265579 -75.29265195 4.40000000
v 19.79051581 -75.23412169 4.40000000
v 20.39096148 -75.12283566 4.40000000
v 20.97942306 -74.95964082 4.40000000
v 21.55142200 -74.74577918 4.40000000
v 22.10260504 -74.48287835 4.40000000
v 22.62877735 -74.17293918 4.40000000
v 23.12593443 -73.81832048 4.40000000
v 23.59029262 -73.42172112 4.40000000
v 24.01831788 -72.98615945 4.40000000
v 24.40675267 -72.51495037 4.40000000
v 24.75264077 -72.01168005 4.40000000
v 25.05334977 -71.48017870 4.40000000
v 25.30659108 -70.92449136 4.40000000
v 25.51043739 -70.34884714 4.40000000
v 25.66333731 -69.75762704 4.40000000
v 41.72901115 60.86821526 4.54000000
v 41.77692388 61.47700418 4.54000000
v 41.77159483 62.08765235 4.54000000
v 41.71306457 62.69551237 4.54000000
v 41.60177854 63.29595804 4.54000000
v 41.43858370 63.88441962 4.54000000
v 41.22472206 64.45641856 4.54000000
v 40.96182124 65.00760160 4.54000000
v 40.65188206 65.53377391 4.54000000
v 40.29726336 66.03093099 4.54000000
v 39.90066400 66.49528918 4.54000000
v 39.46510233 66.92331444 4.54000000
v 38.99389325 67.31174923 4.54000000
v 38.49062294 67.65763733 4.54000000
v 37.95912159 67.95834633 4.54000000
v 37.40343424 68.21158764 4.54000000
v 36.82779002 68.41543395 4.54000000
v 36.23656992 68.56833387 4.54000000
v -17.96321870 75.25006827 4.54000000
v -18.57200762 75.29798099 4.54000000
v -19.18265579 75.29265195 4.54000000
v -19.79051581 75.23412169 4.54000000
v -20.39096148 75.12283566 4.54000000
v -20.97942306 74.95964082 4.54000000
v -21.55142200 74.74577918 4.54000000
v -22.10260504 74.48287835 4.54000000
v -22.62877735 74.17293918 4.54000000
v -23.12593443 73.81832048 4.54000000
v -23.59029262 73.42172112 4.54000000
v -24.01831788 72.98615945 4.54000000
v -24.40675267 72.51495037 4.54000000
v -24.75264077 72.01168005 4.54000000
v -25.05334977 71.48017870 4.54000000
v -25.30659108 70.92449136 4.54000000
v -25.51043739 70.34884714 4.54000000
v -25.66333731 69.75762704 4.54000000
v -41.72901115 -60.86821526 4.54000000
v -41.77692388 -61.47700418 4.54000000
v -41.77159483 -62.08765235 4.54000000
v -41.71306457 -62.69551237 4.54000000
v -41.60177854 -63.29595804 4.54000000
v -41.43858370 -63.88441962 4.54000000
v -41.22472206 -64.45641856 4.54000000
v -40.96182124 -65.00760160 4.54000000
v -40.65188206 -65.53377391 4.54000000
v -40.29726336 -66.03093099 4.54000000
v -39.90066400 -66.49528918 4.54000000
v -39.46510233 -66.92331444 4.54000000
v -38.99389325 -67.31174923 4.54000000
v -38.49062294 -67.65763733 4.54000000
v -37.95912159 -67.95834633 4.54000000
v -37.40343424 -68.21158764 4.54000000
v -36.82779002 -68.41543395 4.54000000
v -36.23656992 -68.56833387 4.54000000
v 17.96321870 -75.25006827 4.54000000
v 18.57200762 -75.29798099 4.54000000
v 19.18265579 -75.29265195 4.54000000
v 19.79051581 -75.23412169 4.54000000
v 20.39096148 -75.12283566 4.54000000
v 20.97942306 -74.95964082 4.54000000
v 21.55142200 -74.74577918 4.54000000
v 22.10260504 -74.48287835 4.54000000
v 22.62877735 -74.17293918 4.54000000
v 23.12593443 -73.81832048 4.54000000
v 23.59029262 -73.42172112 4.54000000
v 24.01831788 -72.98615945 4.54000000
v 24.40675267 -72.51495037 4.54000000
v 24.75264077 -72.01168005 4.54000000
v 25.05334977 -71.48017870 4.54000000
v 25.30659108 -70.92449136 4.54000000
v 25.51043739 -70.34884714 4.54000000
v 25.66333731 -69.75762704 4.54000000
f 145 147 146
f 217 218 219
f 145 148 147
f 217 219 220
f 145 149 148
f 217 220 221
f 145 150 149
f 217 221 222
f 145 151 150
f 217 222 223
f 145 152 151
f 217 223 224
f 145 153 152
f 217 224 225
f 145 154 153
f 217 225 226
f 145 155 154
f 217 226 227
f 145 156 155
f 217 227 228
f 145 157 156
f 217 228 229
f 145 158 157
f 217 229 230
f 145 159 158
f 217 230 231
f 145 160 159
f 217 231 232
f 145 161 160
f 217 232 233
f 145 162 161
f 217 233 234
f 145 163 162
f 217 234 235
f 145 164 163
f 217 235 236
f 145 165 164
f 217 236 237
f 145 166 165
f 217 237 238
f 145 167 166
f 217 238 239
f 145 168 167
f 217 239 240
f 145 169 168
f 217 240 241
f 145 170 169
f 217 241 242
f 145 171 170
f 217 242 243
f 145 172 171
f 217 243 244
f 145 173 172
f 217 244 245
f 145 174 173
f 217 245 246
f 145 175 174
f 217 246 247
f 145 176 175
f 217 247 248
f 145 177 176
f 217 248 249
f 145 178 177
f 217 249 250
f 145 179 178
f 217 250 251
f 145 180 179
f 217 251 252
f 145 181 180
f 217 252 253
f 145 182 181
f 217 253 254
f 145 183 182
f 217 254 255
f 145 184 183
f 217 255 256
f 145 185 184
f 217 256 257
f 145 186 185
f 217 257 258
f 145 187 186
f 217 258 259
f 145 188 187
f 217 259 260
f 145 189 188
f 217 260 261
f 145 190 189
f 217 261 262
f 145 191 190
f 217 262 263
f 145 192 191
f 217 263 264
f 145 193 192
f 217 264 265
f 145 194 193
f 217 265 266
f 145 195 194
f 217 266 267
f 145 196 195
f 217 267 268
f 145 197 196
f 217 268 269
f 145 198 197
f 217 269 270
f 145 199 198
f 217 270 271
f 145 200 199
f 217 271 272
f 145 201 200
f 217 272 273
f 145 202 201
f 217 273 274
f 145 203 202
f 217 274 275
f 145 204 203
f 217 275 276
f 145 205 204
f 217 276 277
f 145 206 205
f 217 277 278
f 145 207 206
f 217 278 279
f 145 208 207
f 217 279 280
f 145 209 208
f 217 280 281
f 145 210 209
f 217 281 282
f 145 211 210
f 217 282 283
f 145 212 211
f 217 283 284
f 145 213 212
f 217 284 285
f 145 214 213
f 217 285 286
f 145 215 214
f 217 286 287
f 145 216 215
f 217 287 288
f 145 146 218
f 146 147 219
f 147 148 220
f 148 149 221
f 149 150 222
f 150 151 223
f 151 152 224
f 152 153 225
f 153 154 226
f 154 155 227
f 155 156 228
f 156 157 229
f 157 158 230
f 158 159 231
f 159 160 232
f 160 161 233
f 161 162 234
f 162 163 235
f 163 164 236
f 164 165 237
f 165 166 238
f 166 167 239
f 167 168 240
f 168 169 241
f 169 170 242
f 170 171 243
f 171 172 244
f 172 173 245
f 173 174 246
f 174 175 247
f 175 176 248
f 176 177 249
f 177 178 250
f 178 179 251
f 179 180 252
f 180 181 253
f 181 182 254
f 182 183 255
f 183 184 256
f 184 185 257
f 185 186 258
f 186 187 259
f 187 188 260
f 188 189 261
f 189 190 262
f 190 191 263
f 191 192 264
f 192 193 265
f 193 194 266
f 194 195 267
f 195 196 268
f 196 197 269
f 197 198 270
f 198 199 271
f 199 200 272
f 200 201 273
f 201 202 274
f 202 203 275
f 203 204 276
f 204 205 277
f 205 206 278
f 206 207 279
f 207 208 280
f 208 209 281
f 209 210 282
f 210 211 283
f 211 212 284
f 212 213 285
f 213 214 286
f 214 215 287
f 215 216 288
f 216 145 217
f 145 218 217
f 146 219 218
f 147 220 219
f 148 221 220
f 149 222 221
f 150 223 222
f 151 224 223
f 152 225 224
f 153 226 225
f 154 227 226
f 155 228 227
f 156 229 228
f 157 230 229
f 158 231 230
f 159 232 231
f 160 233 232
f 161 234 233
f 162 235 234
f 163 236 235
f 164 237 236
f 165 238 237
f 166 239 238
f 167 240 239
f 168 241 240
f 169 242 241
f 170 243 242
f 171 244 243
f 172 245 244
f 173 246 245
f 174 247 246
f 175 248 247
f 176 249 248
f 177 250 249
f 178 251 250
f 179 252 251
f 180 253 252
f 181 254 253
f 182 255 254
f 183 256 255
f 184 257 256
f 185 258 257
f 186 259 258
f 187 260 259
f 188 261 260
f 189 262 261
f 190 263 262
f 191 264 263
f 192 265 264
f 193 266 265
f 194 267 266
f 195 268 267
f 196 269 268
f 197 270 269
f 198 271 270
f 199 272 271
f 200 273 272
f 201 274 273
f 202 275 274
f 203 276 275
f 204 277 276
f 205 278 277
f 206 279 278
f 207 280 279
f 208 281 280
f 209 282 281
f 210 283 282
f 211 284 283
f 212 285 284
f 213 286 285
f 214 287 286
f 215 288 287
f 216 217 288

o geometry_2
v 39.55935569 60.42935857 4.54500000
v 39.59768587 60.91638971 4.54500000
v 39.59342264 61.40490825 4.54500000
v 39.54659843 61.89119626 4.54500000
v 39.45756960 62.37155280 4.54500000
v 39.32701373 62.84232206 4.54500000
v 39.15592442 63.29992121 4.54500000
v 38.94560376 63.74086765 4.54500000
v 38.69765242 64.16180549 4.54500000
v 38.41395746 64.55953116 4.54500000
v 38.09667797 64.93101771 4.54500000
v 37.74822864 65.27343792 4.54500000
v 37.37126137 65.58418575 4.54500000
v 36.96864512 65.86089623 4.54500000
v 36.54344404 66.10146343 4.54500000
v 36.09889416 66.30405648 4.54500000
v 35.63837879 66.46713353 4.54500000
v 35.16540271 66.58945346 4.54500000
v -17.52436201 73.08041281 4.54500000
v -18.01139315 73.11874299 4.54500000
v -18.49991169 73.11447975 4.54500000
v -18.98619970 73.06765554 4.54500000
v -19.46655624 72.97862672 4.54500000
v -19.93732550 72.84807085 4.54500000
v -20.39492466 72.67698154 4.54500000
v -20.83587109 72.46666088 4.54500000
v -21.25680893 72.21870954 4.54500000
v -21.65453460 71.93501458 4.54500000
v -22.02602115 71.61773509 4.54500000
v -22.36844136 71.26928575 4.54500000
v -22.67918919 70.89231849 4.54500000
v -22.95589967 70.48970224 4.54500000
v -23.19646687 70.06450116 4.54500000
v -23.39905992 69.61995128 4.54500000
v -23.56213697 69.15943590 4.54500000
v -23.68445690 68.68645983 4.54500000
v -39.55935569 -60.42935857 4.54500000
v -39.59768587 -60.91638971 4.54500000
v -39.59342264 -61.40490825 4.54500000
v -39.54659843 -61.89119626 4.54500000
v -39.45756960 -62.37155280 4.54500000
v -39.32701373 -62.84232206 4.54500000
v -39.15592442 -63.29992121 4.54500000
v -38.94560376 -63.74086765 4.54500000
v -38.69765242 -64.16180549 4.54500000
v -38.41395746 -64.55953116 4.54500000
v -38.09667797 -64.93101771 4.54500000
v -37.74822864 -65.27343792 4.54500000
v -37.37126137 -65.58418575 4.54500000
v -36.96864512 -65.86089623 4.54500000
v -36.54344404 -66.10146343 4.54500000
v -36.09889416 -66.30405648 4.54500000
v -35.63837879 -66.46713353 4.54500000
v -35.16540271 -66.58945346 4.54500000
v 17.52436201 -73.08041281 4.54500000
v 18.01139315 -73.11874299 4.54500000
v 18.49991169 -73.11447975 4.54500000
v 18.98619970 -73.06765554 4.54500000
v 19.46655624 -72.97862672 4.54500000
v 19.93732550 -72.84807085 4.54500000
v 20.39492466 -72.67698154 4.54500000
v 20.83587109 -72.46666088 4.54500000
v 21.25680893 -72.21870954 4.54500000
v 21.65453460 -71.93501458 4.54500000
v 22.02602115 -71.61773509 4.54500000
v 22.36844136 -71.26928575 4.54500000
v 22.67918919 -70.89231849 4.54500000
v 22.95589967 -70.48970224 4.54500000
v 23.19646687 -70.06450116 4.54500000
v 23.39905992 -69.61995128 4.54500000
v 23.56213697 -69.15943590 4.54500000
v 23.68445690 -68.68645983 4.54500000
v 39.55935569 60.42935857 4.60000000
v 39.59768587 60.91638971 4.60000000
v 39.59342264 61.40490825 4.60000000
v 39.54659843 61.89119626 4.60000000
v 39.45756960 62.37155280 4.60000000
v 39.32701373 62.84232206 4.60000000
v 39.15592442 63.29992121 4.60000000
v 38.94560376 63.74086765 4.60000000
v 38.69765242 64.16180549 4.60000000
v 38.41395746 64.55953116 4.60000000
v 38.09667797 64.93101771 4.60000000
v 37.74822864 65.27343792 4.60000000
v 37.37126137 65.58418575 4.60000000
v 36.96864512 65.86089623 4.60000000
v 36.54344404 66.10146343 4.60000000
v 36.09889416 66.30405648 4.60000000
v 35.63837879 66.46713353 4.60000000
v 35.16540271 66.58945346 4.60000000
v -17.52436201 73.08041281 4.60000000
v -18.01139315 73.11874299 4.60000000
v -18.49991169 73.11447975 4.60000000
v -18.98619970 73.06765554 4.60000000
v -19.46655624 72.97862672 4.60000000
v -19.93732550 72.84807085 4.60000000
v -20.39492466 72.67698154 4.60000000
v -20.83587109 72.46666088 4.60000000
v -21.25680893 72.21870954 4.60000000
v -21.65453460 71.93501458 4.60000000
v -22.02602115 71.61773509 4.60000000
v -22.36844136 71.26928575 4.60000000
v -22.67918919 70.89231849 4.60000000
v -22.95589967 70.48970224 4.60000000
v -23.19646687 70.06450116 4.60000000
v -23.39905992 69.61995128 4.60000000
v -23.56213697 69.15943590 4.60000000
v -23.68445690 68.68645983 4.60000000
v -39.55935569 -60.42935857 4.60000000
v -39.59768587 -60.91638971 4.60000000
v -39.59342264 -61.40490825 4.60000000
v -39.54659843 -61.89119626 4.60000000
v -39.45756960 -62.37155280 4.60000000
v -39.32701373 -62.84232206 4.60000000
v -39.15592442 -63.29992121 4.60000000
v -38.94560376 -63.74086765 4.60000000
v -38.69765242 -64.16180549 4.60000000
v -38.41395746 -64.55953116 4.60000000
v -38.09667797 -64.93101771 4.60000000
v -37.74822864 -65.27343792 4.60000000
v -37.37126137 -65.58418575 4.60000000
v -36.96864512 -65.86089623 4.60000000
v -36.54344404 -66.10146343 4.60000000
v -36.09889416 -66.30405648 4.60000000
v -35.63837879 -66.46713353 4.60000000
v -35.16540271 -66.58945346 4.60000000
v 17.52436201 -73.08041281 4.60000000
v 18.01139315 -73.11874299 4.60000000
v 18.49991169 -73.11447975 4.60000000
v 18.98619970 -73.06765554 4.60000000
v 19.46655624 -72.97862672 4.60000000
v 19.93732550 -72.84807085 4.60000000
v 20.39492466 -72.67698154 4.60000000
v 20.83587109 -72.46666088 4.60000000
v 21.25680893 -72.21870954 4.60000000
v 21.65453460 -71.93501458 4.60000000
v 22.02602115 -71.61773509 4.60000000
v 22.36844136 -71.26928575 4.60000000
v 22.67918919 -70.89231849 4.60000000
v 22.95589967 -70.48970224 4.60000000
v 23.19646687 -70.06450116 4.60000000
v 23.39905992 -69.61995128 4.60000000
v 23.56213697 -69.15943590 4.60000000
v 23.68445690 -68.68645983 4.60000000
f 289 291 290
f 361 362 363
f 289 292 291
f 361 363 364
f 289 293 292
f 361 364 365
f 289 294 293
f 361 365 366
f 289 295 294
f 361 366 367
f 289 296 295
f 361 367 368
f 289 297 296
f 361 368 369
f 289 298 297
f 361 369 370
f 289 299 298
f 361 370 371
f 289 300 299
f 361 371 372
f 289 301 300
f 361 372 373
f 289 302 301
f 361 373 374
f 289 303 302
f 361 374 375
f 289 304 303
f 361 375 376
f 289 305 304
f 361 376 377
f 289 306 305
f 361 377 378
f 289 307 306
f 361 378 379
f 289 308 307
f 361 379 380
f 289 309 308
f 361 380 381
f 289 310 309
f 361 381 382
f 289 311 310
f 361 382 383
f 289 312 311
f 361 383 384
f 289 313 312
f 361 384 385
f 289 314 313
f 361 385 386
f 289 315 314
f 361 386 387
f 289 316 315
f 361 387 388
f 289 317 316
f 361 388 389
f 289 318 317
f 361 389 390
f 289 319 318
f 361 390 391
f 289 320 319
f 361 391 392
f 289 321 320
f 361 392 393
f 289 322 321
f 361 393 394
f 289 323 322
f 361 394 395
f 289 324 323
f 361 395 396
f 289 325 324
f 361 396 397
f 289 326 325
f 361 397 398
f 289 327 326
f 361 398 399
f 289 328 327
f 361 399 400
f 289 329 328
f 361 400 401
f 289 330 329
f 361 401 402
f 289 331 330
f 361 402 403
f 289 332 331
f 361 403 404
f 289 333 332
f 361 404 405
f 289 334 333
f 361 405 406
f 289 335 334
f 361 406 407
f 289 336 335
f 361 407 408
f 289 337 336
f 361 408 409
f 289 338 337
f 361 409 410
f 289 339 338
f 361 410 411
f 289 340 339
f 361 411 412
f 289 341 340
f 361 412 413
f 289 342 341
f 361 413 414
f 289 343 342
f 361 414 415
f 289 344 343
f 361 415 416
f 289 345 344
f 361 416 417
f 289 346 345
f 361 417 418
f 289 347 346
f 361 418 419
f 289 348 347
f 361 419 420
f 289 349 348
f 361 420 421
f 289 350 349
f 361 421 422
f 289 351 350
f 361 422 423
f 289 352 351
f 361 423 424
f 289 353 352
f 361 424 425
f 289 354 353
f 361 425 426
f 289 355 354
f 361 426 427
f 289 356 355
f 361 427 428
f 289 357 356
f 361 428 429
f 289 358 357
f 361 429 430
f 289 359 358
f 361 430 431
f 289 360 359
f 361 431 432
f 289 290 362
f 290 291 363
f 291 292 364
f 292 293 365
f 293 294 366
f 294 295 367
f 295 296 368
f 296 297 369
f 297 298 370
f 298 299 371
f 299 300 372
f 300 301 373
f 301 302 374
f 302 303 375
f 303 304 376
f 304 305 377
f 305 306 378
f 306 307 379
f 307 308 380
f 308 309 381
f 309 310 382
f 310 311 383
f 311 312 384
f 312 313 385
f 313 314 386
f 314 315 387
f 315 316 388
f 316 317 389
f 317 318 390
f 318 319 391
f 319 320 392
f 320 321 393
f 321 322 394
f 322 323 395
f 323 324 396
f 324 325 397
f 325 326 398
f 326 327 399
f 327 328 400
f 328 329 401
f 329 330 402
f 330 331 403
f 331 332 404
f 332 333 405
f 333 334 406
f 334 335 407
f 335 336 408
f 336 337 409
f 337 338 410
f 338 339 411
f 339 340 412
f 340 341 413
f 341 342 414
f 342 343 415
f 343 344 416
f 344 345 417
f 345 346 418
f 346 347 419
f 347 348 420
f 348 349 421
f 349 350 422
f 350 351 423
f 351 352 424
f 352 353 425
f 353 354 426
f 354 355 427
f 355 356 428
f 356 357 429
f 357 358 430
f 358 359 431
f 359 360 432
f 360 289 361
f 289 362 361
f 290 363 362
f 291 364 363
f 292 365 364
f 293 366 365
f 294 367 366
f 295 368 367
f 296 369 368
f 297 370 369
f 298 371 370
f 299 372 371
f 300 373 372
f 301 374 373
f 302 375 374
f 303 376 375
f 304 377 376
f 305 378 377
f 306 379 378
f 307 380 379
f 308 381 380
f 309 382 381
f 310 383 382
f 311 384 383
f 312 385 384
f 313 386 385
f 314 387 386
f 315 388 387
f 316 389 388
f 317 390 389
f 318 391 390
f 319 392 391
f 320 393 392
f 321 394 393
f 322 395 394
f 323 396 395
f 324 397 396
f 325 398 397
f 326 399 398
f 327 400 399
f 328 401 400
f 329 402 401
f 330 403 402
f 331 404 403
f 332 405 404
f 333 406 405
f 334 407 406
f 335 408 407
f 336 409 408
f 337 410 409
f 338 411 410
f 339 412 411
f 340 413 412
f 341 414 413
f 342 415 414
f 343 416 415
f 344 417 416
f 345 418 417
f 346 419 418
f 347 420 419
f 348 421 420
f 349 422 421
f 350 423 422
f 351 424 423
f 352 425 424
f 353 426 425
f 354 427 426
f 355 428 427
f 356 429 428
f 357 430 429
f 358 431 430
f 359 432 431
f 360 361 432

o geometry_3
v 21.81715344 62.80932905 4.61000000
v 21.83940076 63.20111669 4.61000000
v 21.81031920 63.59245638 4.61000000
v 21.73040635 63.97665221 4.61000000
v 21.60102955 64.34713046 4.61000000
v 21.42440247 64.69755217 4.61000000
v 21.20354725 65.02192151 4.61000000
v 20.94224278 65.31468843 4.61000000
v 20.64496006 65.57084361 4.61000000
v 20.31678567 65.78600417 4.61000000
v 19.96333477 65.95648864 4.61000000
v 19.59065500 66.07938000 4.61000000
v -2.63089232 68.83370109 4.61000000
v -3.02267995 68.85594840 4.61000000
v -3.41401965 68.82686684 4.61000000
v -3.79821547 68.74695399 4.61000000
v -4.16869373 68.61757719 4.61000000
v -4.51911544 68.44095012 4.61000000
v -4.84348477 68.22009489 4.61000000
v -5.13625169 67.95879043 4.61000000
v -5.39240688 67.66150770 4.61000000
v -5.60756743 67.33333331 4.61000000
v -5.77805191 66.97988241 4.61000000
v -5.90094327 66.60720265 4.61000000
v -5.97413880 66.22167066 4.61000000
v -5.99638612 65.82988303 4.61000000
v -5.96730455 65.43854333 4.61000000
v -5.88739171 65.05434751 4.61000000
v -5.75801491 64.68386925 4.61000000
v -5.58138783 64.33344755 4.61000000
v -5.36053261 64.00907821 4.61000000
v -5.09922814 63.71631129 4.61000000
v -4.80194542 63.46015610 4.61000000
v -4.47377103 63.24499555 4.61000000
v -4.12032013 63.07451107 4.61000000
v -3.74764036 62.95161971 4.61000000
v 18.47390696 60.19729862 4.61000000
v 18.86569460 60.17505131 4.61000000
v 19.25703429 60.20413287 4.61000000
v 19.64123012 60.28404572 4.61000000
v 20.01170837 60.41342252 4.61000000
v 20.36213008 60.59004960 4.61000000
v 20.68649942 60.81090482 4.61000000
v 20.97926634 61.07220929 4.61000000
v 21.23542152 61.36949201 4.61000000
v 21.45058208 61.69766640 4.61000000
v 21.62106655 62.05111730 4.61000000
v 21.74395791 62.42379707 4.61000000
v 21.81715344 62.80932905 4.68000000
v 21.83940076 63.20111669 4.68000000
v 21.81031920 63.59245638 4.68000000
v 21.73040635 63.97665221 4.68000000
v 21.60102955 64.34713046 4.68000000
v 21.42440247 64.69755217 4.68000000
v 21.20354725 65.02192151 4.68000000
v 20.94224278 65.31468843 4.68000000
v 20.64496006 65.57084361 4.68000000
v 20.31678567 65.78600417 4.68000000
v 19.96333477 65.95648864 4.68000000
v 19.59065500 66.07938000 4.68000000
v -2.63089232 68.83370109 4.68000000
v -3.02267995 68.85594840 4.68000000
v -3.41401965 68.82686684 4.68000000
v -3.79821547 68.74695399 4.68000000
v -4.16869373 68.61757719 4.68000000
v -4.51911544 68.44095012 4.68000000
v -4.84348477 68.22009489 4.68000000
v -5.13625169 67.95879043 4.68000000
v -5.39240688 67.66150770 4.68000000
v -5.60756743 67.33333331 4.68000000
v -5.77805191 66.97988241 4.68000000
v -5.90094327 66.60720265 4.68000000
v -5.97413880 66.22167066 4.68000000
v -5.99638612 65.82988303 4.68000000
v -5.96730455 65.43854333 4.68000000
v -5.88739171 65.05434751 4.68000000
v -5.75801491 64.68386925 4.68000000
v -5.58138783 64.33344755 4.68000000
v -5.36053261 64.00907821 4.68000000
v -5.09922814 63.71631129 4.68000000
v -4.80194542 63.46015610 4.68000000
v -4.47377103 63.24499555 4.68000000
v -4.12032013 63.07451107 4.68000000
v -3.74764036 62.95161971 4.68000000
v 18.47390696 60.19729862 4.68000000
v 18.86569460 60.17505131 4.68000000
v 19.25703429 60.20413287 4.68000000
v 19.64123012 60.28404572 4.68000000
v 20.01170837 60.41342252 4.68000000
v 20.36213008 60.59004960 4.68000000
v 20.68649942 60.81090482 4.68000000
v 20.97926634 61.07220929 4.68000000
v 21.23542152 61.36949201 4.68000000
v 21.45058208 61.69766640 4.68000000
v 21.62106655 62.05111730 4.68000000
v 21.74395791 62.42379707 4.68000000
f 433 435 434
f 481 482 483
f 433 436 435
f 481 483 484
f 433 437 436
f 481 484 485
f 433 438 437
f 481 485 486
f 433 439 438
f 481 486 487
f 433 440 439
f 481 487 488
f 433 441 440
f 481 488 489
f 433 442 441
f 481 489 490
f 433 443 442
f 481 490 491
f 433 444 443
f 481 491 492
f 433 445 444
f 481 492 493
f 433 446 445
f 481 493 494
f 433 447 446
f 481 494 495
f 433 448 447
f 481 495 496
f 433 449 448
f 481 496 497
f 433 450 449
f 481 497 498
f 433 451 450
f 481 498 499
f 433 452 451
f 481 499 500
f 433 453 452
f 481 500 501
f 433 454 453
f 481 501 502
f 433 455 454
f 481 502 503
f 433 456 455
f 481 503 504
f 433 457 456
f 481 504 505
f 433 458 457
f 481 505 506
f 433 459 458
f 481 506 507
f 433 460 459
f 481 507 508
f 433 461 460
f 481 508 509
f 433 462 461
f 481 509 510
f 433 463 462
f 481 510 511
f 433 464 463
f 481 511 512
f 433 465 464
f 481 512 513
f 433 466 465
f 481 513 514
f 433 467 466
f 481 514 515
f 433 468 467
f 481 515 516
f 433 469 468
f 481 516 517
f 433 470 469
f 481 517 518
f 433 471 470
f 481 518 519
f 433 472 471
f 481 519 520
f 433 473 472
f 481 520 521
f 433 474 473
f 481 521 522
f 433 475 474
f 481 522 523
f 433 476 475
f 481 523 524
f 433 477 476
f 481 524 525
f 433 478 477
f 481 525 526
f 433 479 478
f 481 526 527
f 433 480 479
f 481 527 528
f 433 434 482
f 434 435 483
f 435 436 484
f 436 437 485
f 437 438 486
f 438 439 487
f 439 440 488
f 440 441 489
f 441 442 490
f 442 443 491
f 443 444 492
f 444 445 493
f 445 446 494
f 446 447 495
f 447 448 496
f 448 449 497
f 449 450 498
f 450 451 499
f 451 452 500
f 452 453 501
f 453 454 502
f 454 455 503
f 455 456 504
f 456 457 505
f 457 458 506
f 458 459 507
f 459 460 508
f 460 461 509
f 461 462 510
f 462 463 511
f 463 464 512
f 464 465 513
f 465 466 514
f 466 467 515
f 467 468 516
f 468 469 517
f 469 470 518
f 470 471 519
f 471 472 520
f 472 473 521
f 473 474 522
f 474 475 523
f 475 476 524
f 476 477 525
f 477 478 526
f 478 479 527
f 479 480 528
f 480 433 481
f 433 482 481
f 434 483 482
f 435 484 483
f 436 485 484
f 437 486 485
f 438 487 486
f 439 488 487
f 440 489 488
f 441 490 489
f 442 491 490
f 443 492 491
f 444 493 492
f 445 494 493
f 446 495 494
f 447 496 495
f 448 497 496
f 449 498 497
f 450 499 498
f 451 500 499
f 452 501 500
f 453 502 501
f 454 503 502
f 455 504 503
f 456 505 504
f 457 506 505
f 458 507 506
f 459 508 507
f 460 509 508
f 461 510 509
f 462 511 510
f 463 512 511
f 464 513 512
f 465 514 513
f 466 515 514
f 467 516 515
f 468 517 516
f 469 518 517
f 470 519 518
f 471 520 519
f 472 521 520
f 473 522 521
f 474 523 522
f 475 524 523
f 476 525 524
f 477 526 525
f 478 527 526
f 479 528 527
f 480 481 528

o geometry_4
v 3.25654041 65.08828577 4.72000000
v 3.28468397 65.08483018 4.52278721
v 3.36683465 65.07474334 4.34155143
v 3.49633706 65.05884244 4.19097530
v 3.66269971 65.03841568 4.08325760
v 3.85244488 65.01511790 4.02712499
v 11.99056976 64.01588181 4.02712499
v 12.18031493 63.99258403 4.08325760
v 12.34667758 63.97215727 4.19097530
v 12.47618000 63.95625637 4.34155143
v 12.55833067 63.94616954 4.52278721
v 12.58647423 63.94271394 4.72000000
v 3.30167871 65.22324123 4.58054950
v 3.39944731 65.34035222 4.45239645
v 3.54192558 65.43013109 4.34592305
v 3.71757076 65.48530449 4.26975513
v 3.91215314 65.50140261 4.23006338
v 12.05027801 64.50216652 4.23006338
v 12.23518597 64.43947284 4.26975513
v 12.39226609 64.34344591 4.34592305
v 12.50879267 64.22186525 4.45239645
v 12.57532541 64.08458060 4.58054950
v 3.30871817 65.28057297 4.72000000
v 3.41295592 65.45037102 4.72000000
v 3.56080896 65.58392388 4.72000000
v 3.74029909 65.67041189 4.72000000
v 3.93688511 65.70282833 4.72000000
v 12.07500998 64.70359224 4.72000000
v 12.25791431 64.62458025 4.72000000
v 12.41114947 64.49723870 4.72000000
v 12.52230128 64.33188405 4.72000000
v 12.58236486 64.14191233 4.72000000
v 3.30167871 65.22324123 4.85945050
v 3.39944731 65.34035222 4.98760355
v 3.54192558 65.43013109 5.09407695
v 3.71757076 65.48530449 5.17024487
v 3.91215314 65.50140261 5.20993662
v 12.05027801 64.50216652 5.20993662
v 12.23518597 64.43947284 5.17024487
v 12.39226609 64.34344591 5.09407695
v 12.50879267 64.22186525 4.98760355
v 12.57532541 64.08458060 4.85945050
v 3.28468397 65.08483018 4.91721279
v 3.36683465 65.07474334 5.09844857
v 3.49633706 65.05884244 5.24902470
v 3.66269971 65.03841568 5.35674240
v 3.85244488 65.01511790 5.41287501
v 11.99056976 64.01588181 5.41287501
v 12.18031493 63.99258403 5.35674240
v 12.34667758 63.97215727 5.24902470
v 12.47618000 63.95625637 5.09844857
v 12.55833067 63.94616954 4.91721279
v 3.26768923 64.94641912 4.85945050
v 3.33422198 64.80913447 4.98760355
v 3.45074855 64.68755380 5.09407695
v 3.60782867 64.59152687 5.17024487
v 3.79273663 64.52883320 5.20993662
v 11.93086151 63.52959711 5.20993662
v 12.12544388 63.54569523 5.17024487
v 12.30108907 63.60086863 5.09407695
v 12.44356733 63.69064750 4.98760355
v 12.54133593 63.80775848 4.85945050
v 3.26064978 64.88908738 4.72000000
v 3.32071337 64.69911567 4.72000000
v 3.43186517 64.53376101 4.72000000
v 3.58510034 64.40641946 4.72000000
v 3.76800466 64.32740748 4.72000000
v 11.90612954 63.32817139 4.72000000
v 12.10271555 63.36058782 4.72000000
v 12.28220569 63.44707584 4.72000000
v 12.43005872 63.58062870 4.72000000
v 12.53429648 63.75042674 4.72000000
v 3.26768923 64.94641912 4.58054950
v 3.33422198 64.80913447 4.45239645
v 3.45074855 64.68755380 4.34592305
v 3.60782867 64.59152687 4.26975513
v 3.79273663 64.52883320 4.23006338
v 11.93086151 63.52959711 4.23006338
v 12.12544388 63.54569523 4.26975513
v 12.30108907 63.60086863 4.34592305
v 12.44356733 63.69064750 4.45239645
v 12.54133593 63.80775848 4.58054950
f 530 529 541
f 530 541 531
f 531 541 542
f 531 542 532
f 532 542 543
f 532 543 533
f 533 543 544
f 533 544 534
f 534 544 545
f 534 545 535
f 535 545 546
f 535 546 536
f 536 546 547
f 536 547 537
f 537 547 548
f 537 548 538
f 538 548 549
f 538 549 539
f 539 549 550
f 539 550 540
f 541 529 551
f 541 551 542
f 542 551 552
f 542 552 543
f 543 552 553
f 543 553 544
f 544 553 554
f 544 554 545
f 545 554 555
f 545 555 546
f 546 555 556
f 546 556 547
f 547 556 557
f 547 557 548
f 548 557 558
f 548 558 549
f 549 558 559
f 549 559 550
f 550 559 560
f 550 560 540
f 551 529 561
f 551 561 552
f 552 561 562
f 552 562 553
f 553 562 563
f 553 563 554
f 554 563 564
f 554 564 555
f 555 564 565
f 555 565 556
f 556 565 566
f 556 566 557
f 557 566 567
f 557 567 558
f 558 567 568
f 558 568 559
f 559 568 569
f 559 569 560
f 560 569 570
f 560 570 540
f 561 529 571
f 561 571 562
f 562 571 572
f 562 572 563
f 563 572 573
f 563 573 564
f 564 573 574
f 564 574 565
f 565 574 575
f 565 575 566
f 566 575 576
f 566 576 567
f 567 576 577
f 567 577 568
f 568 577 578
f 568 578 569
f 569 578 579
f 569 579 570
f 570 579 580
f 570 580 540
f 571 529 581
f 571 581 572
f 572 581 582
f 572 582 573
f 573 582 583
f 573 583 574
f 574 583 584
f 574 584 575
f 575 584 585
f 575 585 576
f 576 585 586
f 576 586 577
f 577 586 587
f 577 587 578
f 578 587 588
f 578 588 579
f 579 588 589
f 579 589 580
f 580 589 590
f 580 590 540
f 581 529 591
f 581 591 582
f 582 591 592
f 582 592 583
f 583 592 593
f 583 593 584
f 584 593 594
f 584 594 585
f 585 594 595
f 585 595 586
f 586 595 596
f 586 596 587
f 587 596 597
f 587 597 588
f 588 597 598
f 588 598 589
f 589 598 599
f 589 599 590
f 590 599 600
f 590 600 540
f 591 529 601
f 591 601 592
f 592 601 602
f 592 602 593
f 593 602 603
f 593 603 594
f 594 603 604
f 594 604 595
f 595 604 605
f 595 605 596
f 596 605 606
f 596 606 597
f 597 606 607
f 597 607 598
f 598 607 608
f 598 608 599
f 599 608 609
f 599 609 600
f 600 609 610
f 600 610 540
f 601 529 530
f 601 530 602
f 602 530 531
f 602 531 603
f 603 531 532
f 603 532 604
f 604 532 533
f 604 533 605
f 605 533 534
f 605 534 606
f 606 534 535
f 606 535 607
f 607 535 536
f 607 536 608
f 608 536 537
f 608 537 609
f 609 537 538
f 609 538 610
f 610 538 539
f 610 539 540

o geometry_5
v 16.06038576 63.51617124 4.59000000
v 17.05293192 63.39430190 4.59000000
v 17.05293192 63.39430190 4.77000000
v 16.06038576 63.51617124 4.77000000
v 17.05065383 63.65534434 4.59000000
v 17.05065383 63.65534434 4.77000000
v 16.98089062 63.90690237 4.59000000
v 16.98089062 63.90690237 4.77000000
v 16.84839652 64.13183272 4.59000000
v 16.84839652 64.13183272 4.77000000
v 16.66220079 64.31480675 4.59000000
v 16.66220079 64.31480675 4.77000000
v 16.43499236 64.44335510 4.59000000
v 16.43499236 64.44335510 4.77000000
v 16.18225511 64.50871739 4.59000000
v 16.18225511 64.50871739 4.77000000
v 15.92121266 64.50643931 4.59000000
v 15.92121266 64.50643931 4.77000000
v 15.66965464 64.43667609 4.59000000
v 15.66965464 64.43667609 4.77000000
v 15.44472429 64.30418199 4.59000000
v 15.44472429 64.30418199 4.77000000
v 15.26175025 64.11798626 4.59000000
v 15.26175025 64.11798626 4.77000000
v 15.13320191 63.89077783 4.59000000
v 15.13320191 63.89077783 4.77000000
v 15.06783961 63.63804058 4.59000000
v 15.06783961 63.63804058 4.77000000
v 15.07011770 63.37699814 4.59000000
v 15.07011770 63.37699814 4.77000000
v 15.13988091 63.12544011 4.59000000
v 15.13988091 63.12544011 4.77000000
v 15.27237501 62.90050977 4.59000000
v 15.27237501 62.90050977 4.77000000
v 15.45857074 62.71753573 4.59000000
v 15.45857074 62.71753573 4.77000000
v 15.68577917 62.58898739 4.59000000
v 15.68577917 62.58898739 4.77000000
v 15.93851642 62.52362509 4.59000000
v 15.93851642 62.52362509 4.77000000
v 16.19955887 62.52590317 4.59000000
v 16.19955887 62.52590317 4.77000000
v 16.45111689 62.59566639 4.59000000
v 16.45111689 62.59566639 4.77000000
v 16.67604724 62.72816049 4.59000000
v 16.67604724 62.72816049 4.77000000
v 16.85902127 62.91435622 4.59000000
v 16.85902127 62.91435622 4.77000000
v 16.98756962 63.14156465 4.59000000
v 16.98756962 63.14156465 4.77000000
f 612 611 615
f 612 615 613
f 613 615 616
f 613 616 614
f 615 611 617
f 615 617 616
f 616 617 618
f 616 618 614
f 617 611 619
f 617 619 618
f 618 619 620
f 618 620 614
f 619 611 621
f 619 621 620
f 620 621 622
f 620 622 614
f 621 611 623
f 621 623 622
f 622 623 624
f 622 624 614
f 623 611 625
f 623 625 624
f 624 625 626
f 624 626 614
f 625 611 627
f 625 627 626
f 626 627 628
f 626 628 614
f 627 611 629
f 627 629 628
f 628 629 630
f 628 630 614
f 629 611 631
f 629 631 630
f 630 631 632
f 630 632 614
f 631 611 633
f 631 633 632
f 632 633 634
f 632 634 614
f 633 611 635
f 633 635 634
f 634 635 636
f 634 636 614
f 635 611 637
f 635 637 636
f 636 637 638
f 636 638 614
f 637 611 639
f 637 639 638
f 638 639 640
f 638 640 614
f 639 611 641
f 639 641 640
f 640 641 642
f 640 642 614
f 641 611 643
f 641 643 642
f 642 643 644
f 642 644 614
f 643 611 645
f 643 645 644
f 644 645 646
f 644 646 614
f 645 611 647
f 645 647 646
f 646 647 648
f 646 648 614
f 647 611 649
f 647 649 648
f 648 649 650
f 648 650 614
f 649 611 651
f 649 651 650
f 650 651 652
f 650 652 614
f 651 611 653
f 651 653 652
f 652 653 654
f 652 654 614
f 653 611 655
f 653 655 654
f 654 655 656
f 654 656 614
f 655 611 657
f 655 657 656
f 656 657 658
f 656 658 614
f 657 611 659
f 657 659 658
f 658 659 660
f 658 660 614
f 659 611 612
f 659 612 660
f 660 612 613
f 660 613 614

o geometry_8
v 32.54546713 -22.13125775 -1.40000000
v 32.54546713 -22.13125775 1.40000000
v 33.52042187 -14.19088854 -1.40000000
v 33.52042187 -14.19088854 1.40000000
v 33.83577712 -22.28968790 -1.40000000
v 33.83577712 -22.28968790 1.40000000
v 34.81073187 -14.34931868 -1.40000000
v 34.81073187 -14.34931868 1.40000000
f 662 664 661
f 665 662 661
f 661 664 663
f 663 665 661
f 662 668 664
f 666 662 665
f 666 668 662
f 664 668 663
f 667 665 663
f 663 668 667
f 667 666 665
f 668 666 667

o geometry_11
v -37.49185743 -7.48669665 -1.40000000
v -37.49185743 -7.48669665 1.40000000
v -36.51690268 0.45367256 -1.40000000
v -36.51690268 0.45367256 1.40000000
v -36.20154743 -7.64512680 -1.40000000
v -36.20154743 -7.64512680 1.40000000
v -35.22659268 0.29524241 -1.40000000
v -35.22659268 0.29524241 1.40000000
f 670 672 669
f 673 670 669
f 669 672 671
f 671 673 669
f 670 676 672
f 674 670 673
f 674 676 670
f 672 676 671
f 675 673 671
f 671 676 675
f 675 674 673
f 676 674 675

o geometry_12
v -14.05418378 -73.43459620 -1.00000000
v -14.05418378 -73.43459620 1.00000000
v -13.93231443 -72.44205004 -1.00000000
v -13.93231443 -72.44205004 1.00000000
v -4.12872226 -74.65328963 -1.00000000
v -4.12872226 -74.65328963 1.00000000
v -4.00685292 -73.66074348 -1.00000000
v -4.00685292 -73.66074348 1.00000000
f 678 680 677
f 681 678 677
f 677 680 679
f 679 681 677
f 678 684 680
f 682 678 681
f 682 684 678
f 680 684 679
f 683 681 679
f 679 684 683
f 683 682 681
f 684 682 683

o geometry_18
v 7.90979437 -75.07354829 -0.00000000
v 8.90234052 -75.19541763 -0.00000000
v 8.75609731 -76.38647302 0.00000000
v 7.76355116 -76.26460367 0.00000000
v 8.82678745 -75.18614088 0.38268343
v 8.68054423 -76.37719627 0.38268343
v 8.61163048 -75.15972293 0.70710678
v 8.46538727 -76.35077831 0.70710678
v 8.28962534 -75.12018567 0.92387953
v 8.14338213 -76.31124105 0.92387953
v 7.90979437 -75.07354829 1.00000000
v 7.76355116 -76.26460367 1.00000000
v 7.52996340 -75.02691091 0.92387953
v 7.38372019 -76.21796629 0.92387953
v 7.20795826 -74.98737365 0.70710678
v 7.06171504 -76.17842903 0.70710678
v 6.99280130 -74.96095570 0.38268343
v 6.84655808 -76.15201108 0.38268343
v 6.91724822 -74.95167895 0.00000000
v 6.77100501 -76.14273433 0.00000000
v 6.99280130 -74.96095570 -0.38268343
v 6.84655808 -76.15201108 -0.38268343
v 7.20795826 -74.98737365 -0.70710678
v 7.06171504 -76.17842903 -0.70710678
v 7.52996340 -75.02691091 -0.92387953
v 7.38372019 -76.21796629 -0.92387953
v 7.90979437 -75.07354829 -1.00000000
v 7.76355116 -76.26460367 -1.00000000
v 8.28962534 -75.12018567 -0.92387953
v 8.14338213 -76.31124105 -0.92387953
v 8.61163048 -75.15972293 -0.70710678
v 8.46538727 -76.35077831 -0.70710678
v 8.82678745 -75.18614088 -0.38268343
v 8.68054423 -76.37719627 -0.38268343
f 686 685 689
f 686 689 687
f 687 689 690
f 687 690 688
f 689 685 691
f 689 691 690
f 690 691 692
f 690 692 688
f 691 685 693
f 691 693 692
f 692 693 694
f 692 694 688
f 693 685 695
f 693 695 694
f 694 695 696
f 694 696 688
f 695 685 697
f 695 697 696
f 696 697 698
f 696 698 688
f 697 685 699
f 697 699 698
f 698 699 700
f 698 700 688
f 699 685 701
f 699 701 700
f 700 701 702
f 700 702 688
f 701 685 703
f 701 703 702
f 702 703 704
f 702 704 688
f 703 685 705
f 703 705 704
f 704 705 706
f 704 706 688
f 705 685 707
f 705 707 706
f 706 707 708
f 706 708 688
f 707 685 709
f 707 709 708
f 708 709 710
f 708 710 688
f 709 685 711
f 709 711 710
f 710 711 712
f 710 712 688
f 711 685 713
f 711 713 712
f 712 713 714
f 712 714 688
f 713 685 715
f 713 715 714
f 714 715 716
f 714 716 688
f 715 685 717
f 715 717 716
f 716 717 718
f 716 718 688
f 717 685 686
f 717 686 718
f 718 686 687
f 718 687 688

